<svg xmlns="http://www.w3.org/2000/svg" version="1.0" preserveAspectRatio="xMidYMid meet" viewBox="329.18 607.56 1391.54 848.24">
<metadata>
Created by potrace 1.16, written by Peter Selinger 2001-2019
</metadata>
<g transform="translate(0.000000,2048.000000) scale(0.100000,-0.100000)" fill="#000000" stroke="none">
<path d="M3577 14399 c-193 -30 -315 -216 -273 -418 8 -40 26 -92 40 -115 14 -24 141 -157 283 -297 246 -242 790 -784 2586 -2569 444 -442 807 -810 807 -819 0 -8 -388 -403 -862 -876 -778 -777 -2627 -2638 -2756 -2775 -104 -110 -133 -218 -93 -349 50 -164 246 -284 405 -246 108 25 72 -8 861 800 867 887 1295 1323 2031 2065 260 261 563 568 675 683 112 114 208 207 213 207 6 0 474 -463 1041 -1028 783 -781 1048 -1040 1105 -1078 148 -99 227 -137 368 -174 312 -83 654 0 937 228 38 31 508 497 1044 1034 539 542 981 978 991 978 9 0 43 -28 74 -62 31 -35 431 -439 889 -898 963 -966 1423 -1431 1987 -2010 738 -758 707 -731 848 -752 60 -10 77 -8 138 10 164 51 278 203 259 346 -13 99 -54 155 -285 391 -487 499 -1039 1053 -2202 2216 -827 825 -1228 1232 -1228 1246 0 14 602 624 1848 1873 1517 1520 1851 1861 1872 1903 37 76 36 199 -2 279 -49 105 -155 185 -275 208 -59 11 -131 1 -191 -26 -24 -11 -236 -216 -612 -593 -513 -515 -1874 -1889 -1990 -2010 -24 -25 -231 -235 -460 -467 -364 -369 -586 -595 -939 -958 l-94 -96 -901 0 c-496 -1 -931 0 -968 0 l-66 0 -17 49 c-36 110 -130 215 -239 267 -39 19 -83 34 -98 34 l-28 0 0 818 c0 449 -3 827 -6 840 -6 21 -3 22 44 22 62 0 143 -29 204 -73 25 -17 233 -217 462 -442 l415 -411 233 233 233 233 -448 448 c-478 478 -529 522 -711 612 -142 71 -252 100 -402 107 -269 13 -496 -61 -729 -237 -90 -69 -1275 -1240 -1825 -1805 -144 -148 -266 -271 -270 -273 -4 -2 -819 810 -1811 1803 -992 994 -1831 1827 -1863 1852 -93 70 -153 87 -249 72z m6641 -2956 l-3 -838 -46 -6 c-92 -14 -214 -87 -279 -169 -31 -39 -79 -140 -80 -167 0 -9 -198 -13 -867 -15 -478 -2 -874 -1 -880 1 -7 2 -13 8 -13 14 0 6 57 70 128 142 1037 1060 1728 1752 1788 1792 65 43 166 82 217 82 l37 1 -2 -837z m-512 -1270 l102 -6 4 -48 c11 -107 117 -253 232 -319 27 -16 78 -34 113 -41 l63 -13 0 -824 0 -824 -57 4 c-64 4 -143 37 -225 92 -69 46 -1962 1939 -1966 1967 l-4 20 819 -1 c450 -1 864 -4 919 -7z m2617 0 c167 -5 197 -8 197 -21 0 -9 -330 -347 -733 -751 -403 -405 -834 -839 -957 -964 -137 -139 -251 -246 -291 -272 -64 -43 -154 -75 -211 -75 l-28 0 -2 818 c-2 449 -2 822 0 828 2 6 29 18 61 27 159 44 298 202 326 369 5 34 9 37 43 41 66 7 1392 7 1595 0z"/>
</g>
</svg>